<svg width="18" height="19" viewBox="0 0 18 19" fill="none" xmlns="http://www.w3.org/2000/svg">
<path fill-rule="evenodd" clip-rule="evenodd" d="M17.4808 3.02387C17.6385 3.02387 17.7877 3.09675 17.8862 3.22196C17.9848 3.3472 18.022 3.51116 17.9873 3.66764L16.4297 10.7063C16.3764 10.9472 16.166 11.1183 15.9231 11.1183H5.49889L5.89826 12.878H15.8884C16.1752 12.878 16.4077 13.1143 16.4077 13.4059C16.4077 13.6974 16.1752 13.9338 15.8884 13.9338H5.48518C5.24341 13.9338 5.0336 13.7641 4.97925 13.5246L2.35617 1.96805H0.519222C0.232488 1.96805 0 1.73172 0 1.44016C0 1.1486 0.232488 0.912231 0.519222 0.912231H2.76922C3.01099 0.912231 3.22077 1.0819 3.27515 1.32142L3.66159 3.02387H17.4808ZM5.25923 10.0625H15.5077L16.8317 4.07965H3.90125L5.25923 10.0625Z" fill="#443737"/>
<path fill-rule="evenodd" clip-rule="evenodd" d="M6 16.9388C6 15.8341 6.89722 14.9354 8 14.9354C9.10282 14.9354 10 15.8341 10 16.9388C10 18.0434 9.10278 18.9421 8 18.9421C6.89718 18.9421 6 18.0434 6 16.9388ZM7.09093 16.9388C7.09093 17.4409 7.49873 17.8494 8 17.8494C8.50127 17.8494 8.90907 17.4409 8.90907 16.9388C8.90907 16.4367 8.50127 16.0282 8 16.0282C7.49873 16.0282 7.09093 16.4367 7.09093 16.9388Z" fill="#443737"/>
<path fill-rule="evenodd" clip-rule="evenodd" d="M12 16.9388C12 15.8341 12.8972 14.9354 14 14.9354C15.1028 14.9354 16 15.8341 16 16.9388C16 18.0434 15.1028 18.9421 14 18.9421C12.8972 18.9421 12 18.0434 12 16.9388ZM13.0909 16.9388C13.0909 17.4409 13.4987 17.8494 14 17.8494C14.5013 17.8494 14.9091 17.4409 14.9091 16.9388C14.9091 16.4367 14.5013 16.0282 14 16.0282C13.4987 16.0282 13.0909 16.4367 13.0909 16.9388Z" fill="#443737"/>
</svg>
